<svg version="1.2" xmlns="http://www.w3.org/2000/svg" viewBox="0 0 800 800" width="500" height="500"><style>.a{fill:#231f20}</style><path class="a" d="m542.9 320.9c-12.9-6.7-27.5-10.3-42.2-10.3-36 0-68.8 21.3-83.6 54.2l-1.3 2.9-2.7-1.6q-2.1-1.3-4.2-2.7-1.4-0.9-2.7-1.9-0.3-0.1-0.5-0.3l-2.7-2 2.4-2.3c10.2-9.5 18-21.2 22.9-34q0.1 0 0.1 0 1.7-4.6 3-9.3c2.1-7.7 3.2-15.7 3.2-23.7 0-27.4-12.1-53-33-70.5-0.6-0.4-1.4-0.4-2 0-21 17.5-33 43.2-33 70.5 0 8 1 16 3.1 23.7q1.3 4.7 3.1 9.3c4.9 12.8 12.7 24.5 22.9 33.9l2.5 2.4-2.7 2q-0.3 0.1-0.6 0.3-1.3 1-2.6 1.9-2.1 1.4-4.3 2.7l-2.7 1.6-1.3-2.9c-14.7-32.9-47.6-54.2-83.6-54.2-14.7 0-29.3 3.6-42.2 10.4-0.7 0.3-1 1.1-0.7 1.9q1.9 4.8 4.3 9.4c15.6 29.7 47.1 49.1 81.2 49.1 12.7 0 25.6-2.7 37.2-7.9q0.3-0.1 0.6-0.2l2.9-1.3 0.9 2.9c2.9 8.8 4.3 18 4.3 27.4 0 11.3-2.1 22.3-6.3 32.8-0.1 0.4-0.1 0.8 0 1.2 0.2 0.3 0.5 0.6 0.9 0.8 0.8 0.3 1.6-0.1 1.9-0.9 4.4-10.8 6.6-22.2 6.6-33.9 0-10.2-1.7-20.1-4.9-29.6l-0.7-2.2 2-1.1q3.1-1.8 6.1-3.8 1.3-0.9 2.7-1.9 0.8-0.6 1.7-1.3l1.7-1.3 1.7 1.3q0.8 0.7 1.7 1.3 1.3 1 2.7 1.9 2.9 2 6 3.8l2.1 1.1-0.8 2.2c-3.2 9.5-4.8 19.4-4.8 29.6 0 11.8 2.1 23.2 6.5 33.9 0.1 0.4 0.4 0.7 0.8 0.9 0.2 0.1 0.7 0.2 1.2 0 0.3-0.2 0.6-0.5 0.8-0.8 0.2-0.4 0.2-0.8 0-1.2-4.2-10.4-6.3-21.4-6.3-32.8 0-9.4 1.5-18.6 4.3-27.4l1-2.9 2.8 1.3q0.3 0.1 0.7 0.2c11.5 5.2 24.4 7.9 37.2 7.9 34.1 0 65.5-19.4 81.1-49.2q2.4-4.5 4.3-9.4c0.3-0.7 0-1.5-0.7-1.9zm-162.9 49.3q-0.6 0.3-1.2 0.6c-11.2 5-23.5 7.6-35.8 7.6-17.2 0-33.9-5.1-48.4-14.5-12.7-8.4-23-19.7-30-32.9q-1.4-2.7-2.7-5.5l-1.1-2.5 2.5-1.1c11.5-5.4 24.3-8.2 37.1-8.2 17.1 0 33.9 5 48.4 14.5 14.5 9.5 25.7 22.7 32.6 38.4l1.1 2.5zm20.6-13.1l-1.9-1.7c-16-14.6-26.1-34.5-28.5-55.8q-0.3-2.5-0.5-4.9v-0.1q-0.1-2.4-0.1-4.8c0-24.9 10.6-48.8 29.1-65.6l1.9-1.7 1.9 1.7c18.4 16.7 29 40.6 29 65.6q0 2.4-0.1 4.8v0.1q-0.2 2.4-0.4 4.9c-2.4 21.3-12.5 41.2-28.5 55.8zm138.6-31.7q-1.2 2.8-2.7 5.5c-6.9 13.3-17.2 24.5-30 32.9-14.5 9.5-31.2 14.5-48.4 14.5-12.3 0-24.6-2.6-35.8-7.6q-0.6-0.2-1.2-0.5l-2.5-1.2 1.1-2.5c6.9-15.6 18.2-28.9 32.6-38.4 14.5-9.5 31.3-14.5 48.4-14.5 12.8 0 25.6 2.8 37.1 8.2l2.5 1.1z"/><path class="a" d="m539.3 332.2c-15.6 29.8-47 49.2-81.1 49.2-12.8 0-25.6-2.7-37.2-7.9q0.6-1.3 1.3-2.7c7-13.2 17.3-24.5 30-32.9 14.6-9.5 31.3-14.5 48.4-14.5 12.3 0 24.7 2.6 35.9 7.6q0.6 0.2 1.2 0.5z"/><path class="a" d="m380.2 373.5c-11.6 5.2-24.5 7.9-37.2 7.9-34.1 0-65.6-19.4-81.2-49.1l1.5-0.7q0.6-0.3 1.3-0.6c11.1-5 23.5-7.6 35.8-7.6 17.1 0 33.9 5 48.4 14.5 12.7 8.4 23 19.7 30 32.9q0.7 1.4 1.4 2.7z"/><path class="a" d="m431.5 309.5q0 2.1-0.1 4.1-1.3 4.7-3 9.3 0 0-0.1 0c-4.9 12.8-12.7 24.5-22.9 34l-2.4 2.3 2.7 2q0.2 0.2 0.5 0.3 1.3 1 2.7 1.9-1.1 1.1-2.2 2.2-1.4-0.9-2.7-1.9-0.9-0.6-1.7-1.3l-1.7-1.3-1.7 1.3q-0.9 0.7-1.7 1.3-1.4 1-2.7 1.9-1.1-1.1-2.2-2.2 1.3-0.9 2.6-1.9 0.3-0.2 0.6-0.3l2.7-2-2.5-2.4c-10.2-9.4-18-21.1-22.9-33.9q-1.8-4.6-3.1-9.4-0.1-2-0.1-4 0-2.4 0.1-4.9 0.2-2.5 0.5-4.9c2.4-21.3 12.5-41.3 28.5-55.8l1.9-1.7 1.9 1.7c16 14.5 26.1 34.4 28.5 55.8q0.2 2.4 0.4 4.9 0.1 2.5 0.1 4.9z"/><path class="a" d="m505.3 250.7l-0.1 2.8c-0.7 12.9-6.4 24.8-16 33.6-9.1 8.3-20.7 12.8-32.9 12.8q-1 0-2 0l-2.8-0.1 0.1-2.9c0.7-12.9 6.4-24.8 16-33.6 9.6-8.7 22-13.3 34.9-12.8z"/><path class="a" d="m349.7 299.8l-2.9 0.1q-0.9 0-1.9 0c-12.2 0-23.9-4.5-33-12.8-9.6-8.8-15.3-20.7-16-33.6l-0.1-2.8 2.8-0.2c12.9-0.5 25.3 4.1 34.9 12.8 9.7 8.8 15.3 20.7 16 33.6z"/><path class="a" d="m367.8 409.9c-4.5 0-8.1-3.6-8.1-8.1 0-4.5 3.6-8.1 8.1-8.1 4.5 0 8.1 3.6 8.1 8.1 0 4.5-3.6 8.1-8.1 8.1z"/><path class="a" d="m431.5 409.9c-4.5 0-8.1-3.6-8.1-8.1 0-4.5 3.6-8.1 8.1-8.1 4.5 0 8.1 3.6 8.1 8.1 0 4.5-3.6 8.1-8.1 8.1z"/><path class="a" d="m16.2 579.8v-105h63.7l-1.6 10.6-29.5-4.9q-7.8 0-17.2 2.7v38.5h35.2v6.1h-35.2v46.3l49.2-4.9-1.6 10.6z"/><path class="a" d="m132.2 471.4v108.4h-13.3v-108.4z"/><path class="a" d="m170.3 485.9q0-3.4 2.3-5.7 2.3-2.4 5.7-2.4 3.4 0 5.9 2.4 2.5 2.3 2.5 5.7 0 3.3-2.5 5.8-2.5 2.6-5.8 2.6-3.3 0-5.7-2.5-2.4-2.4-2.4-5.9zm14.8 22.2v71.7h-13.2v-71.7z"/><path class="a" d="m242.5 573q1.9 2.4 6.4 2.4 4.4 0 10.6-2.4v4.4q-9.2 4.3-16.5 4.3-7.3 0-11.5-4-4.2-4.1-4.2-12.6v-51.3l-12.9-2.5v-3.2h12.9v-5.7l13.3-9.7v15.4h18.9v5.7h-18.9v52q0 4.8 1.9 7.2z"/><path class="a" d="m297.6 540.8q0 17.1 7.7 24.6 7.7 7.6 18.7 7.6 11 0 20.4-4.3v5.6q-13 7.4-24.9 7.4-15.4 0-24.9-9.3-9.6-9.4-9.6-27.2 0-17.8 10.6-28.4 10.5-10.6 25.5-10.6 11.5 0 19.3 9.1 7.8 9.1 7.8 25.5zm15.4-27.2q-5.6 2.7-9.5 8.7-4 5.9-5.3 13.7h37.2q-0.5-6.7-3.1-11.4-2.6-4.8-6.3-7-6.5-4-13-4z"/><path class="a" d="m441 579.8v-105h63.7l-1.6 10.6-29.5-4.9q-7.8 0-17.2 2.7v38.5h35.2v6.1h-35.2v46.3l49.2-4.9-1.6 10.6z"/><path class="a" d="m599.1 558.5q0 11 8.1 17.5l-8.1 5.9-13-11.6q-6.4 6-11.5 8.7-5 2.7-10.4 2.7-5.4 0-9.6-1.6-4.1-1.6-8.6-5.3-4.5-3.7-7.3-11.7-2.8-8-2.8-20.7 0-12.7 7.6-24.4 7.5-11.7 20.7-11.7 9.8 0 21.4 7.3v-42.2h13.5zm-13.5 5.3v-44.3q-8.4-5.6-15.4-5.6-9.2 0-14.8 8.7-5.5 8.6-5.5 21.6 0 13.1 4 20.9 4.1 7.9 10.1 9.5 5.6-0.5 10.9-2.7 5.3-2.3 8-4.6 2.7-2.3 2.7-3.5z"/><path class="a" d="m643.7 540.8q0 17.1 7.7 24.6 7.7 7.6 18.7 7.6 11 0 20.4-4.3v5.6q-13 7.4-24.9 7.4-15.4 0-24.9-9.3-9.6-9.4-9.6-27.2 0-17.8 10.6-28.4 10.5-10.6 25.5-10.6 11.5 0 19.3 9.1 7.8 9.1 7.8 25.5zm15.4-27.2q-5.6 2.7-9.5 8.7-4 5.9-5.3 13.7h37.2q-0.5-6.7-3.1-11.4-2.7-4.8-6.3-7-6.5-4-13-4z"/><path class="a" d="m754.7 509q5-2.8 11.8-2.8 6.8 0 12.6 5.4 5.8 5.4 5.8 18.5v49.7h-13.5v-48.1q0-7.7-2.8-11.6-2.7-3.9-9.5-3.9-6.7 0-15.6 8.9v54.7h-13.5v-49.8q0-10.8-8.1-17.3l8.1-6 13 11.5q6.7-6.3 11.7-9.2z"/></svg>