<svg version="1.2" xmlns="http://www.w3.org/2000/svg" viewBox="0 0 800 800" width="500" height="500"><defs><linearGradient id="P" gradientUnits="userSpaceOnUse"/><linearGradient id="g1" x2="1" href="#P" gradientTransform="matrix(-514.719,-1239.619,944.331,-392.109,599.489,1116.72)"><stop stop-color="#d0ad69"/><stop offset="1" stop-color="#fceeca"/></linearGradient><linearGradient id="g2" x2="1" href="#P" gradientTransform="matrix(-669.2,-1611.659,789.691,-327.899,821.791,1238.73)"><stop stop-color="#d0ad69"/><stop offset="1" stop-color="#fceeca"/></linearGradient><linearGradient id="g3" x2="1" href="#P" gradientTransform="matrix(-406.856,-979.847,480.146,-199.368,547.261,960.972)"><stop stop-color="#d0ad69"/><stop offset="1" stop-color="#fceeca"/></linearGradient><linearGradient id="g4" x2="1" href="#P" gradientTransform="matrix(-407.301,-980.919,1955.368,-811.916,528.895,971.216)"><stop stop-color="#d0ad69"/><stop offset="1" stop-color="#fceeca"/></linearGradient><linearGradient id="g5" x2="1" href="#P" gradientTransform="matrix(-631.621,-1521.158,1394.839,-579.171,844.489,1236.416)"><stop stop-color="#d0ad69"/><stop offset="1" stop-color="#fceeca"/></linearGradient><linearGradient id="g6" x2="1" href="#P" gradientTransform="matrix(-345.508,-832.101,762.919,-316.782,533.162,861.643)"><stop stop-color="#d0ad69"/><stop offset="1" stop-color="#fceeca"/></linearGradient><linearGradient id="g7" x2="1" href="#P" gradientTransform="matrix(-170.421,-410.431,410.431,-170.421,443.25,611.356)"><stop stop-color="#d0ad69"/><stop offset="1" stop-color="#fceeca"/></linearGradient><linearGradient id="g8" x2="1" href="#P" gradientTransform="matrix(-170.421,-410.431,410.431,-170.421,506.959,611.356)"><stop stop-color="#d0ad69"/><stop offset="1" stop-color="#fceeca"/></linearGradient><linearGradient id="g9" x2="1" href="#P" gradientTransform="matrix(0,-141.744,230.549,0,-37.151,630.708)"><stop stop-color="#d0ad69"/><stop offset="1" stop-color="#fceeca"/></linearGradient><linearGradient id="g10" x2="1" href="#P" gradientTransform="matrix(0,-141.745,1152.602,0,-315.382,630.708)"><stop stop-color="#d0ad69"/><stop offset="1" stop-color="#fceeca"/></linearGradient><linearGradient id="g11" x2="1" href="#P" gradientTransform="matrix(0,-141.745,884.738,0,-140.208,630.708)"><stop stop-color="#d0ad69"/><stop offset="1" stop-color="#fceeca"/></linearGradient><linearGradient id="g12" x2="1" href="#P" gradientTransform="matrix(0,-141.744,279.989,0,148.828,630.707)"><stop stop-color="#d0ad69"/><stop offset="1" stop-color="#fceeca"/></linearGradient><linearGradient id="g13" x2="1" href="#P" gradientTransform="matrix(0,-141.743,169.524,0,271.268,630.707)"><stop stop-color="#d0ad69"/><stop offset="1" stop-color="#fceeca"/></linearGradient><linearGradient id="g14" x2="1" href="#P" gradientTransform="matrix(0,-141.744,230.549,0,387.726,630.708)"><stop stop-color="#d0ad69"/><stop offset="1" stop-color="#fceeca"/></linearGradient><linearGradient id="g15" x2="1" href="#P" gradientTransform="matrix(0,-141.744,219.723,0,485.803,630.707)"><stop stop-color="#d0ad69"/><stop offset="1" stop-color="#fceeca"/></linearGradient><linearGradient id="g16" x2="1" href="#P" gradientTransform="matrix(0,-141.743,169.522,0,617.427,630.707)"><stop stop-color="#d0ad69"/><stop offset="1" stop-color="#fceeca"/></linearGradient><linearGradient id="g17" x2="1" href="#P" gradientTransform="matrix(0,-141.744,165.655,0,710.275,630.708)"><stop stop-color="#d0ad69"/><stop offset="1" stop-color="#fceeca"/></linearGradient></defs><style>.a{fill:url(#g1)}.b{fill:url(#g2)}.c{fill:url(#g3)}.d{fill:url(#g4)}.e{fill:url(#g5)}.f{fill:url(#g6)}.g{fill:url(#g7)}.h{fill:url(#g8)}.i{fill:url(#g9)}.j{fill:url(#g10)}.k{fill:url(#g11)}.l{fill:url(#g12)}.m{fill:url(#g13)}.n{fill:url(#g14)}.o{fill:url(#g15)}.p{fill:url(#g16)}.q{fill:url(#g17)}</style><path class="a" d="m542.8 320.8c-12.9-6.7-27.5-10.2-42.2-10.2-36.1 0-68.9 21.2-83.6 54.2l-1.3 2.8-2.7-1.6q-2.2-1.3-4.3-2.7-1.3-0.9-2.7-1.8-0.2-0.2-0.5-0.4l-2.7-2 2.5-2.3c10.2-9.5 18-21.1 22.9-33.9q0 0 0 0 1.8-4.6 3.1-9.4c2-7.7 3.1-15.6 3.1-23.7 0-27.3-12-53-33-70.4-0.6-0.5-1.4-0.5-2 0-21 17.4-33 43.1-33 70.4 0 8 1.1 16 3.1 23.7q1.3 4.8 3.1 9.4c5 12.7 12.8 24.4 23 33.9l2.4 2.3-2.7 2q-0.2 0.2-0.5 0.4-1.3 0.9-2.7 1.8-2.1 1.5-4.3 2.7l-2.7 1.6-1.3-2.8c-14.7-33-47.5-54.2-83.6-54.2-14.7 0-29.3 3.5-42.2 10.3-0.6 0.3-1 1.2-0.7 1.9q1.9 4.9 4.3 9.4c15.7 29.8 47.1 49.2 81.2 49.2 12.8 0 25.6-2.7 37.2-7.9q0.3-0.1 0.6-0.3l2.9-1.3 1 3c2.8 8.7 4.3 17.9 4.3 27.3 0 11.3-2.2 22.4-6.3 32.9-0.2 0.3-0.2 0.7 0 1.1 0.1 0.4 0.4 0.7 0.8 0.8 0.8 0.3 1.7-0.1 2-0.8 4.3-10.9 6.5-22.3 6.5-34 0-10.2-1.6-20.1-4.8-29.5l-0.8-2.2 2-1.2q3.2-1.7 6.1-3.8 1.4-0.9 2.7-1.8 0.9-0.7 1.7-1.3l1.7-1.3 1.7 1.3q0.9 0.6 1.7 1.3 1.4 0.9 2.7 1.8 2.9 2.1 6.1 3.8l2 1.2-0.7 2.2c-3.3 9.4-4.9 19.4-4.9 29.5 0 11.8 2.2 23.3 6.5 34 0.2 0.4 0.5 0.7 0.9 0.8 0.2 0.1 0.6 0.2 1.1 0 0.4-0.1 0.7-0.4 0.8-0.8 0.2-0.4 0.2-0.8 0.1-1.2-4.2-10.3-6.3-21.4-6.3-32.8 0-9.4 1.4-18.6 4.2-27.3l1-3 2.9 1.3q0.3 0.2 0.6 0.3c11.6 5.2 24.5 7.9 37.2 7.9 34.1 0 65.6-19.4 81.2-49.2q2.4-4.6 4.3-9.4c0.3-0.8 0-1.6-0.7-2zm-162.9 49.4q-0.6 0.3-1.3 0.5c-11.1 5-23.5 7.6-35.8 7.6-17.1 0-33.9-5-48.4-14.5-12.7-8.3-23-19.6-30-32.9q-1.4-2.6-2.7-5.4l-1.1-2.5 2.5-1.2c11.5-5.3 24.3-8.2 37.1-8.2 17.2 0 33.9 5.1 48.4 14.5 14.5 9.5 25.8 22.8 32.7 38.4l1.1 2.5zm20.5-13.1l-1.9-1.7c-16-14.5-26.1-34.4-28.5-55.8q-0.3-2.4-0.4-4.9-0.1-2.4-0.2-4.9c0-24.9 10.7-48.8 29.1-65.6l1.9-1.7 1.9 1.7c18.5 16.8 29.1 40.7 29.1 65.6q0 2.5-0.2 4.9-0.1 2.5-0.4 4.9c-2.4 21.3-12.5 41.3-28.5 55.8zm138.7-31.6q-1.3 2.8-2.7 5.4c-7 13.3-17.2 24.6-30 32.9-14.5 9.5-31.3 14.5-48.4 14.5-12.3 0-24.7-2.6-35.8-7.5q-0.7-0.3-1.3-0.6l-2.5-1.1 1.1-2.6c6.9-15.6 18.2-28.9 32.7-38.3 14.5-9.5 31.2-14.5 48.4-14.5 12.7 0 25.6 2.8 37.1 8.1l2.5 1.1z"/><path class="b" d="m539.2 332.2c-15.6 29.8-47.1 49.2-81.2 49.2-12.7 0-25.6-2.7-37.2-7.9q0.7-1.4 1.4-2.8c7-13.2 17.2-24.5 30-32.8 14.5-9.5 31.3-14.5 48.4-14.5 12.3 0 24.6 2.6 35.8 7.5q0.7 0.3 1.3 0.6z"/><path class="c" d="m380 373.5c-11.6 5.2-24.4 7.9-37.2 7.9-34.1 0-65.5-19.4-81.2-49.2l1.5-0.7q0.7-0.3 1.3-0.6c11.1-4.9 23.5-7.5 35.8-7.5 17.2 0 33.9 5 48.4 14.5 12.8 8.3 23.1 19.6 30 32.8q0.7 1.4 1.4 2.8z"/><path class="d" d="m431.4 309.4q0 2.1-0.1 4.1-1.3 4.8-3.1 9.4 0 0 0 0c-5 12.8-12.7 24.4-22.9 33.9l-2.5 2.3 2.7 2q0.3 0.2 0.5 0.4 1.4 0.9 2.7 1.8-1.1 1.2-2.2 2.2-1.3-0.9-2.7-1.8-0.8-0.7-1.7-1.3l-1.7-1.3-1.7 1.3q-0.8 0.6-1.7 1.3-1.3 0.9-2.7 1.8-1.1-1-2.2-2.2 1.4-0.9 2.7-1.8 0.3-0.2 0.5-0.4l2.7-2-2.4-2.3c-10.2-9.5-18-21.2-23-33.9q-1.8-4.6-3.1-9.4 0-2 0-4.1 0-2.4 0.1-4.8 0.1-2.5 0.4-5c2.4-21.3 12.5-41.2 28.5-55.8l1.9-1.7 1.9 1.7c16 14.5 26.1 34.5 28.5 55.8q0.3 2.5 0.4 4.9v0.1q0.2 2.4 0.2 4.8z"/><path class="e" d="m505.2 250.6l-0.1 2.8c-0.7 12.9-6.4 24.8-16 33.6-9.1 8.3-20.8 12.8-33 12.8q-1 0-2 0l-2.8-0.1 0.2-2.8c0.6-12.9 6.3-24.9 15.9-33.6 9.7-8.8 22.1-13.4 35-12.8z"/><path class="f" d="m349.5 299.7l-2.8 0.1q-1 0-2 0c-12.2 0-23.8-4.5-33-12.8-9.6-8.8-15.3-20.7-16-33.6l-0.1-2.8 2.8-0.1c12.9-0.6 25.3 4 35 12.8 9.6 8.7 15.3 20.7 16 33.6z"/><path class="g" d="m367.6 409.8c-4.4 0-8-3.6-8-8 0-4.5 3.6-8.1 8-8.1 4.5 0 8.1 3.6 8.1 8.1 0 4.4-3.6 8-8.1 8z"/><path class="h" d="m431.4 409.8c-4.5 0-8.1-3.6-8.1-8 0-4.5 3.6-8.1 8.1-8.1 4.4 0 8 3.6 8 8.1 0 4.4-3.6 8-8 8z"/><path class="i" d="m16 579.8v-105.1h63.6l-1.5 10.7-29.6-5q-7.7 0-17.1 2.7v38.6h35.2v6h-35.2v46.4l49.2-4.9-1.6 10.6z"/><path class="j" d="m132 471.4v108.4h-13.3v-108.4z"/><path class="k" d="m170.1 485.9q0-3.4 2.3-5.8 2.3-2.4 5.7-2.4 3.4 0 5.9 2.4 2.5 2.4 2.5 5.7 0 3.4-2.5 5.9-2.5 2.5-5.8 2.5-3.3 0-5.7-2.4-2.4-2.5-2.4-5.9zm14.8 22.2v71.7h-13.2v-71.7z"/><path class="l" d="m242.3 573q1.9 2.3 6.4 2.3 4.4 0 10.6-2.3v4.4q-9.2 4.3-16.5 4.3-7.3 0-11.5-4.1-4.2-4-4.2-12.6v-51.2l-12.9-2.6v-3.1h12.9v-5.8l13.3-9.6v15.4h18.9v5.7h-18.9v52q0 4.8 1.9 7.2z"/><path class="m" d="m297.4 540.7q0 17.2 7.7 24.7 7.7 7.6 18.7 7.6 11.1 0 20.4-4.3v5.5q-13 7.5-24.9 7.5-15.4 0-24.9-9.4-9.5-9.3-9.5-27.1 0-17.8 10.5-28.4 10.6-10.6 25.5-10.7 11.6 0.1 19.4 9.2 7.7 9.1 7.7 25.4zm15.4-27.1q-5.5 2.7-9.5 8.7-4 5.9-5.2 13.7h37.1q-0.5-6.7-3.1-11.4-2.6-4.8-6.3-7-6.5-4-13-4z"/><path class="n" d="m440.9 579.8v-105.1h63.6l-1.6 10.7-29.5-5q-7.8 0-17.1 2.7v38.6h35.2v6h-35.2v46.4l49.2-4.9-1.6 10.6z"/><path class="o" d="m599 558.5q0 11 8.1 17.5l-8.1 5.9-13.1-11.6q-6.3 6-11.4 8.7-5.1 2.7-10.5 2.7-5.4 0-9.5-1.6-4.1-1.6-8.6-5.3-4.6-3.7-7.3-11.8-2.8-8-2.8-20.7 0-12.7 7.5-24.3 7.6-11.7 20.7-11.7 9.9 0 21.5 7.3v-42.2h13.5zm-13.5 5.2v-44.3q-8.4-5.5-15.4-5.5-9.2 0-14.8 8.6-5.5 8.7-5.5 21.7 0 13 4 20.9 4 7.8 10.1 9.4 5.5-0.5 10.9-2.7 5.3-2.2 8-4.5 2.7-2.3 2.7-3.6z"/><path class="p" d="m643.6 540.7q0 17.2 7.7 24.7 7.7 7.6 18.7 7.6 11 0 20.4-4.3v5.5q-13 7.5-24.9 7.5-15.4 0-25-9.4-9.5-9.3-9.5-27.1 0-17.8 10.6-28.4 10.5-10.6 25.4-10.7 11.6 0.1 19.4 9.2 7.8 9.1 7.8 25.4zm15.4-27.1q-5.6 2.7-9.5 8.7-4 5.9-5.3 13.7h37.2q-0.5-6.7-3.1-11.4-2.6-4.8-6.3-7-6.5-4-13-4z"/><path class="q" d="m754.6 509q5-2.8 11.8-2.9 6.8 0 12.6 5.4 5.8 5.4 5.8 18.6v49.7h-13.5v-48.1q0-7.8-2.8-11.7-2.7-3.9-9.5-3.9-6.7 0-15.6 8.9v54.8h-13.5v-49.8q0-10.8-8.1-17.3l8.1-6.1 13 11.6q6.7-6.3 11.7-9.2z"/></svg>