<svg width="180" height="138" viewBox="0 0 180 138" fill="none" xmlns="http://www.w3.org/2000/svg">
<path d="M179.313 64.5625C171.25 60.375 162.125 58.125 152.938 58.125C130.438 58.125 109.938 71.4375 100.688 92L99.875 93.8125L98.1875 92.8125C97.3125 92.2708 96.4375 91.7083 95.5625 91.125C94.9792 90.75 94.4167 90.3542 93.875 89.9375C93.75 89.8958 93.6458 89.8333 93.5625 89.75L91.875 88.5L93.375 87.0625C99.75 81.125 104.625 73.8125 107.688 65.8125C107.729 65.8125 107.75 65.8125 107.75 65.8125C108.458 63.8958 109.083 61.9583 109.625 60C110.938 55.1875 111.625 50.1875 111.625 45.1875C111.625 28.0625 104.063 12.0625 91 1.125C90.625 0.875 90.125 0.875 89.75 1.125C76.625 12.0625 69.125 28.125 69.125 45.1875C69.125 50.1875 69.75 55.1875 71.0625 60C71.6042 61.9583 72.25 63.8958 73 65.8125C76.0625 73.8125 80.9375 81.125 87.3125 87L88.875 88.5L87.1875 89.75C87.0625 89.7917 86.9375 89.8542 86.8125 89.9375C86.2708 90.3542 85.7292 90.75 85.1875 91.125C84.3125 91.7083 83.4167 92.2708 82.5 92.8125L80.8125 93.8125L80 92C70.8125 71.4375 50.25 58.125 27.75 58.125C18.5625 58.125 9.43752 60.375 1.37502 64.625C0.937518 64.8125 0.75001 65.3125 0.93751 65.8125C1.72918 67.8125 2.625 69.7708 3.625 71.6875C13.375 90.25 33.0625 102.375 54.375 102.375C62.3125 102.375 70.375 100.688 77.625 97.4375C77.75 97.3958 77.875 97.3542 78 97.3125L79.8125 96.5L80.375 98.3125C82.1875 103.812 83.0625 109.562 83.0625 115.438C83.0625 122.5 81.75 129.375 79.125 135.938C79.0625 136.188 79.0625 136.438 79.125 136.688C79.25 136.875 79.4375 137.063 79.6875 137.188C80.1875 137.375 80.6875 137.125 80.875 136.625C83.625 129.875 85 122.75 85 115.438C85 109.062 83.9375 102.875 81.9375 96.9375L81.5 95.5625L82.75 94.875C84.0417 94.125 85.3125 93.3333 86.5625 92.5C87.1042 92.125 87.6667 91.7292 88.25 91.3125C88.5833 91.0625 88.9375 90.7917 89.3125 90.5L90.375 89.6875L91.4375 90.5C91.7708 90.7917 92.125 91.0625 92.5 91.3125C93.0417 91.7292 93.6042 92.125 94.1875 92.5C95.3958 93.3333 96.6458 94.125 97.9375 94.875L99.25 95.5625L98.75 96.9375C96.75 102.875 95.75 109.062 95.75 115.438C95.75 122.812 97.0625 129.938 99.8125 136.625C99.875 136.875 100.063 137.063 100.313 137.188C100.438 137.25 100.75 137.313 101.063 137.188C101.25 137.063 101.438 136.875 101.563 136.688C101.688 136.438 101.688 136.188 101.563 135.938C98.9375 129.438 97.625 122.562 97.625 115.438C97.625 109.562 98.5625 103.812 100.313 98.3125L100.938 96.5L102.688 97.3125C102.812 97.3542 102.958 97.3958 103.125 97.4375C110.313 100.688 118.375 102.375 126.375 102.375C147.688 102.375 167.312 90.25 177.062 71.625C178.062 69.75 178.958 67.7917 179.75 65.75C179.938 65.3125 179.75 64.8125 179.313 64.5625ZM77.5 95.375C77.25 95.5 77 95.625 76.75 95.75C69.75 98.875 62.0625 100.5 54.375 100.5C43.625 100.5 33.1875 97.3125 24.125 91.4375C16.1875 86.1875 9.75001 79.125 5.37501 70.875C4.79168 69.75 4.22917 68.6042 3.68751 67.4375L3 65.875L4.5625 65.1875C11.75 61.8125 19.75 60.0625 27.75 60.0625C38.4375 60.0625 48.9375 63.1875 58 69.125C67.0625 75.0625 74.0625 83.3125 78.375 93.125L79.0625 94.6875L77.5 95.375ZM90.375 87.1875L89.1875 86.125C79.1875 77 72.875 64.5625 71.375 51.25C71.25 50.2083 71.1458 49.1875 71.0625 48.1875V48.125C71.0208 47.125 71 46.125 71 45.125C71 29.5625 77.625 14.625 89.1875 4.125L90.375 3.0625L91.5625 4.125C103.063 14.5625 109.688 29.5 109.688 45.125C109.688 46.125 109.667 47.125 109.625 48.125V48.1875C109.542 49.1875 109.458 50.2083 109.375 51.25C107.875 64.5625 101.563 77 91.5625 86.125L90.375 87.1875ZM177 67.375C176.5 68.5417 175.938 69.6875 175.313 70.8125C171 79.125 164.562 86.125 156.562 91.375C147.5 97.3125 137.063 100.438 126.313 100.438C118.625 100.438 110.938 98.8125 103.938 95.6875C103.688 95.6042 103.438 95.5 103.188 95.375L101.625 94.625L102.313 93.0625C106.625 83.3125 113.688 75 122.688 69.0625C131.75 63.125 142.25 60 152.938 60C160.938 60 168.938 61.75 176.125 65.125L177.688 65.8125L177 67.375Z" fill="#231F20"/>
<path d="M177.062 71.625C167.312 90.25 147.688 102.375 126.375 102.375C118.375 102.375 110.375 100.688 103.125 97.4375C103.375 96.8958 103.646 96.3333 103.937 95.75C108.312 87.5 114.75 80.4375 122.687 75.1875C131.812 69.25 142.25 66.125 152.938 66.125C160.625 66.125 168.375 67.75 175.375 70.875C175.625 70.9583 175.875 71.0625 176.125 71.1875L177.062 71.625Z" fill="#231F20"/>
<path d="M77.625 97.4375C70.375 100.688 62.3125 102.375 54.375 102.375C33.0625 102.375 13.375 90.25 3.625 71.6875L4.5625 71.25C4.8125 71.125 5.08334 71 5.37501 70.875C12.3125 67.75 20.0625 66.125 27.75 66.125C38.4375 66.125 48.9375 69.25 58 75.1875C65.9375 80.4375 72.375 87.5 76.75 95.75C77.0417 96.3333 77.3333 96.8958 77.625 97.4375Z" fill="#231F20"/>
<path d="M109.687 57.4375C109.687 58.3125 109.667 59.1667 109.625 60C109.083 61.9583 108.458 63.8958 107.75 65.8125C107.75 65.8125 107.729 65.8125 107.687 65.8125C104.625 73.8125 99.75 81.125 93.375 87.0625L91.875 88.5L93.5625 89.75C93.6458 89.8333 93.75 89.8958 93.875 89.9375C94.4167 90.3542 94.9792 90.75 95.5625 91.125C95.1042 91.5833 94.6458 92.0417 94.1875 92.5C93.6042 92.125 93.0417 91.7292 92.5 91.3125C92.125 91.0625 91.7708 90.7917 91.4375 90.5L90.375 89.6875L89.3125 90.5C88.9375 90.7917 88.5833 91.0625 88.25 91.3125C87.6667 91.7292 87.1042 92.125 86.5625 92.5C86.1042 92.0417 85.6458 91.5833 85.1875 91.125C85.7292 90.75 86.2708 90.3542 86.8125 89.9375C86.9375 89.8542 87.0625 89.7917 87.1875 89.75L88.875 88.5L87.3125 87C80.9375 81.125 76.0625 73.8125 73 65.8125C72.25 63.8958 71.6042 61.9375 71.0625 59.9375C71.0208 59.1042 71 58.2708 71 57.4375C71 56.4375 71.0208 55.4167 71.0625 54.375C71.1458 53.3333 71.25 52.3125 71.375 51.3125C72.875 38 79.1875 25.5 89.1875 16.4375L90.375 15.375L91.5625 16.4375C101.562 25.5 107.875 37.9375 109.375 51.3125C109.458 52.3125 109.542 53.3333 109.625 54.375C109.667 55.4167 109.687 56.4375 109.687 57.4375Z" fill="#231F20"/>
<path d="M155.812 20.6875L155.75 22.4375C155.313 30.5 151.75 37.9375 145.75 43.4375C140.063 48.625 132.812 51.4375 125.187 51.4375C124.771 51.4375 124.354 51.4375 123.937 51.4375L122.188 51.375L122.25 49.5625C122.688 41.5 126.25 34.0625 132.25 28.5625C138.25 23.125 146 20.25 154.062 20.5625L155.812 20.6875Z" fill="#231F20"/>
<path d="M58.5625 51.375L56.75 51.4375C56.375 51.4375 55.9792 51.4375 55.5625 51.4375C47.9375 51.4375 40.625 48.625 34.9375 43.4375C28.9375 37.9375 25.375 30.5 24.9375 22.4375L24.875 20.6875L26.625 20.5625C34.6875 20.25 42.4375 23.125 48.4375 28.5625C54.5 34.0625 58 41.5 58.4375 49.5625L58.5625 51.375Z" fill="#231F20"/>
<path d="M69.875 120.187C67.0625 120.187 64.8125 117.937 64.8125 115.125C64.8125 112.312 67.0625 110.062 69.875 110.062C72.6875 110.062 74.9375 112.312 74.9375 115.125C74.9375 117.937 72.6875 120.187 69.875 120.187Z" fill="#231F20"/>
<path d="M109.688 120.187C106.875 120.187 104.625 117.937 104.625 115.125C104.625 112.312 106.875 110.062 109.688 110.062C112.5 110.062 114.75 112.312 114.75 115.125C114.75 117.937 112.5 120.187 109.688 120.187Z" fill="#231F20"/>
</svg>
