<svg version="1.2" xmlns="http://www.w3.org/2000/svg" viewBox="0 0 800 800" width="400" height="400"><defs><linearGradient id="P" gradientUnits="userSpaceOnUse"/><linearGradient id="g1" x2="1" href="#P" gradientTransform="matrix(-1359.351,-3492.565,4168.064,-1846.341,925.976,2622.211)"><stop stop-color="#d0ad69"/><stop offset="1" stop-color="#fceeca"/></linearGradient><linearGradient id="g2" x2="1" href="#P" gradientTransform="matrix(-1767.329,-4540.77,10475.81,-4640.507,1513.066,2965.968)"><stop stop-color="#d0ad69"/><stop offset="1" stop-color="#fceeca"/></linearGradient><linearGradient id="g3" x2="1" href="#P" gradientTransform="matrix(-1074.489,-2760.671,2890.118,-1280.244,788.044,2183.398)"><stop stop-color="#d0ad69"/><stop offset="1" stop-color="#fceeca"/></linearGradient><linearGradient id="g4" x2="1" href="#P" gradientTransform="matrix(-1075.665,-2763.691,1474.397,-653.118,739.54,2212.26)"><stop stop-color="#d0ad69"/><stop offset="1" stop-color="#fceeca"/></linearGradient><linearGradient id="g5" x2="1" href="#P" gradientTransform="matrix(-1668.084,-4285.788,7638.522,-3383.662,1573.01,2959.448)"><stop stop-color="#d0ad69"/><stop offset="1" stop-color="#fceeca"/></linearGradient><linearGradient id="g6" x2="1" href="#P" gradientTransform="matrix(-912.472,-2344.404,1281.795,-567.8,750.809,1903.544)"><stop stop-color="#d0ad69"/><stop offset="1" stop-color="#fceeca"/></linearGradient><linearGradient id="g7" x2="1" href="#P" gradientTransform="matrix(-450.102,-1156.44,1083.997,-480.182,513.396,1198.418)"><stop stop-color="#d0ad69"/><stop offset="1" stop-color="#fceeca"/></linearGradient><linearGradient id="g8" x2="1" href="#P" gradientTransform="matrix(-450.102,-1156.44,1083.997,-480.182,681.629,1198.378)"><stop stop-color="#d0ad69"/><stop offset="1" stop-color="#fceeca"/></linearGradient></defs><style>.a{fill:url(#g1)}.b{fill:url(#g2)}.c{fill:url(#g3)}.d{fill:url(#g4)}.e{fill:url(#g5)}.f{fill:url(#g6)}.g{fill:url(#g7)}.h{fill:url(#g8)}</style><path class="a" d="m776.3 379.7c-34.1-18.8-72.7-28.7-111.5-28.7-95.3 0-181.9 59.7-220.8 152.7l-3.4 7.9-7.1-4.5q-5.8-3.7-11.4-7.6-3.4-2.5-7.1-5.1-0.5-0.5-1.3-1.1l-7.2-5.6 6.6-6.5c27-26.8 47.6-59.5 60.5-95.5q4.8-13 8.2-26.5c5.3-21.7 8.2-44 8.2-66.8 0-76.9-31.7-149.3-87.2-198.3-1.6-1.5-3.7-1.5-5.3 0-55.4 49-87.1 121.4-87.1 198.3 0 22.5 2.9 45.1 8.2 66.8q3.4 13.5 8.2 26.5c13.2 35.7 33.8 68.7 60.7 95.5l6.4 6.5-7.2 5.6q-0.5 0.6-1.3 1.1-3.4 2.6-7.1 5.1-5.6 4.2-11.4 7.6l-7.1 4.5-3.4-7.9c-38.9-93-125.5-152.7-220.8-152.7-38.9 0-77.4 9.9-111.5 29-1.6 0.9-2.6 3.4-1.8 5.4q5 13.8 11.3 26.5c41.5 83.9 124.4 138.6 214.5 138.6 33.8 0 67.6-7.6 98.2-22.3q0.8-0.3 1.6-0.8l7.7-3.7 2.6 8.5c7.4 24.5 11.4 50.4 11.4 76.9 0 31.8-5.9 63.1-16.7 92.7-0.5 0.8-0.5 2 0 3.1 0.3 1.1 1.1 2 2.1 2.2 2.1 0.9 4.5-0.2 5.3-2.2 11.4-30.7 17.2-62.8 17.2-95.8 0-28.8-4.2-56.6-12.7-83.1l-2.1-6.2 5.3-3.4q8.4-4.8 16.1-10.7 3.7-2.6 7.1-5.1 2.4-2 4.5-3.6l4.5-3.7 4.5 3.7q2.4 1.6 4.5 3.6 3.7 2.5 7.1 5.1 7.7 5.9 16.1 10.7l5.3 3.4-1.9 6.2c-8.7 26.5-12.9 54.6-12.9 83.1 0 33.2 5.8 65.6 17.2 95.8 0.5 1.1 1.3 2 2.3 2.2 0.6 0.3 1.6 0.6 3 0 1-0.2 1.8-1.1 2.1-2.2 0.5-1.1 0.5-2.3 0.2-3.4-11.1-29-16.6-60.3-16.6-92.4 0-26.5 3.7-52.4 11.1-76.9l2.6-8.5 7.7 3.7q0.8 0.5 1.6 0.8c30.6 14.7 64.7 22.3 98.2 22.3 90.1 0 173.3-54.7 214.5-138.6q6.3-13 11.3-26.5c0.8-2.3 0-4.5-1.8-5.7zm-430.2 139.2q-1.6 0.9-3.5 1.4c-29.3 14.1-62 21.4-94.5 21.4-45.2 0-89.6-14-127.9-40.8-33.5-23.4-60.7-55.2-79.2-92.7q-3.7-7.3-7.1-15.2l-2.9-7.1 6.6-3.3c30.4-15 64.2-23.1 98-23.1 45.4 0 89.5 14.3 127.8 40.8 38.3 26.8 68.1 64.3 86.3 108.2l3 7zm54.1-36.9l-5-4.8c-42.3-40.8-69-96.9-75.3-157.2q-0.8-6.7-1-13.8-0.3-6.7-0.6-13.8c0-70.1 28.3-137.5 76.9-184.8l5-4.8 5 4.8c48.9 47.3 76.9 114.7 76.9 184.8q0 7.1-0.6 13.8-0.2 7.1-1 13.8c-6.4 60-33 116.4-75.3 157.2zm366.3-89q-3.4 7.9-7.1 15.2c-18.5 37.5-45.4 69.3-79.2 92.7-38.3 26.8-82.7 40.9-127.9 40.9-32.5 0-65.2-7.3-94.5-21.2q-1.9-0.8-3.4-1.6l-6.7-3.1 3-7.4c18.2-43.9 48-81.4 86.3-107.9 38.3-26.7 82.4-40.8 127.8-40.8 33.6 0 67.6 7.9 98 22.8l6.6 3.1z"/><path class="b" d="m766.8 411.9c-41.2 83.9-124.4 138.6-214.5 138.6-33.5 0-67.6-7.6-98.2-22.3q1.8-3.9 3.7-7.9c18.4-37.2 45.4-69 79.2-92.4 38.3-26.7 82.7-40.8 127.8-40.8 32.5 0 65 7.3 94.6 21.1q1.8 0.8 3.4 1.7z"/><path class="c" d="m346.3 528.2c-30.6 14.7-64.4 22.3-98.2 22.3-90.1 0-173-54.7-214.5-138.6l4-2q1.8-0.9 3.4-1.7c29.3-13.8 62.1-21.1 94.6-21.1 45.4 0 89.5 14.1 127.8 40.8 33.8 23.4 61 55.2 79.2 92.4q1.9 4 3.7 7.9z"/><path class="d" d="m482.1 347.6q0 5.9-0.3 11.6-3.4 13.5-8.2 26.5c-13.2 36-33.5 68.7-60.5 95.5l-6.6 6.5 7.2 5.6q0.8 0.6 1.3 1.1 3.7 2.6 7.1 5.1-2.9 3.4-5.8 6.2-3.4-2.6-7.1-5.1-2.1-2-4.5-3.6l-4.5-3.7-4.5 3.7q-2.1 1.6-4.5 3.6-3.4 2.5-7.1 5.1-2.9-2.8-5.8-6.2 3.7-2.5 7.1-5.1 0.8-0.5 1.3-1.1l7.2-5.6-6.4-6.5c-26.9-26.8-47.5-59.8-60.7-95.5q-4.8-13-8.2-26.5 0-5.7 0-11.6 0-6.7 0.2-13.5 0.3-7 1.1-14.1c6.3-60 33-116.1 75.3-157.2l5-4.8 5 4.8c42.3 40.9 68.9 97.2 75.3 157.2q0.8 7.1 1 13.8v0.3q0.6 6.8 0.6 13.5z"/><path class="e" d="m677 182l-0.3 7.8c-1.9 36.4-16.9 69.9-42.3 94.7-24 23.4-54.9 36.1-87.1 36.1q-2.6 0-5.3 0l-7.4-0.3 0.5-7.9c1.6-36.3 16.7-70.1 42-94.7 25.7-24.8 58.4-37.7 92.5-36z"/><path class="f" d="m265.8 320.3l-7.4 0.3q-2.7 0-5.3 0c-32.2 0-62.9-12.7-87.2-36.1-25.3-24.8-40.4-58.3-42.2-94.7l-0.3-7.8 7.4-0.3c34.1-1.7 66.8 11.2 92.4 36 25.4 24.6 40.5 58.4 42.3 94.7z"/><path class="g" d="m313.7 630.5c-11.8 0-21.3-10.1-21.3-22.7 0-12.5 9.5-22.7 21.3-22.7 11.8 0 21.3 10.2 21.3 22.7 0 12.6-9.5 22.7-21.3 22.7z"/><path class="h" d="m481.9 630.5c-11.7 0-21.2-10.1-21.2-22.7 0-12.5 9.5-22.7 21.2-22.7 11.8 0 21.3 10.2 21.3 22.7 0 12.6-9.5 22.7-21.3 22.7z"/></svg>